<?xml version="1.0" ?><svg id="Layer_1" style="enable-background:new 0 0 229.285 314.7;" version="1.1" viewBox="0 0 229.285 314.7" xml:space="preserve" xmlns="http://www.w3.org/2000/svg" xmlns:xlink="http://www.w3.org/1999/xlink"><g><path d="M21.311,240.663l16.813-11.387v73.061c0,6.83,5.537,12.363,12.363,12.363c6.828,0,12.365-5.533,12.365-12.363v-90.271   h4.635v90.271c0,6.83,5.537,12.363,12.363,12.363c6.828,0,12.365-5.533,12.365-12.363V147.682c2.473,1.011,5.199,2.027,8.016,2.843   c2.998,0.85,6.02,1.531,9.346,1.552c2.482-0.034,5.451-0.332,8.524-2.492c1.498-1.07,2.851-2.678,3.654-4.461   c0.816-1.783,1.115-3.634,1.115-5.326c-0.127-5.073-2.053-9.274-5.254-14.873c-3.131-5.311-7.752-11.727-14.322-19.765l4.238-7.315   c1.107-1.912,0.455-4.359-1.455-5.466l-11.539-6.684c-1.91-1.106-4.359-0.455-5.465,1.457l-1.596,2.754   c0.49,1.078,0.904,2.198,1.236,3.352l2.07-3.573l13.699,7.936l-11.193,19.324l-7.211-4.175c-0.396,0.648-0.82,1.276-1.273,1.883   c0.187,0.039,0.371,0.099,0.547,0.2c0.877,0.508,1.174,1.629,0.668,2.505c-0.508,0.877-1.629,1.176-2.506,0.668   c-0.383-0.221-0.647-0.562-0.789-0.945c-0.879,0.905-1.826,1.744-2.834,2.505l7.805,4.522c1.912,1.106,4.359,0.455,5.467-1.457   l1.529-2.64c4.205,5.389,7.191,9.721,9.139,13.035c0.475,0.803,0.887,1.546,1.24,2.224c-0.131-0.037-0.264-0.075-0.396-0.114   c-3.252-0.935-7.033-2.484-9.893-3.785c-1.438-0.649-2.652-1.237-3.496-1.656c-0.42-0.207-0.75-0.374-0.965-0.486   c-0.217-0.11-0.297-0.155-0.297-0.155c-1.16-0.611-2.424-0.922-3.734-0.922h-7.248c-0.326,0-0.646,0.025-0.963,0.063H47.287   c-0.006-0.001-0.012-0.002-0.018-0.003c-0.299-0.038-0.777-0.08-1.414-0.08c-2.84-0.078-9.385,1.106-15.199,7.186   c-5.092,5.275-9.518,13.596-12.303,26.895c-0.406,1.937-0.777,3.976-1.111,6.13c0,0.006,0,0.013-0.002,0.02   c-1.221,7.915-1.932,17.382-1.932,28.793c0,5.855,0.188,12.225,0.594,19.16c0.25,4.25,3.775,7.529,7.981,7.531   c0.158,0,0.314-0.006,0.475-0.016c4.41-0.258,7.775-4.043,7.517-8.454c-0.391-6.651-0.568-12.708-0.566-18.222   c-0.002-10.728,0.672-19.391,1.738-26.322c0.004-0.017,0.008-0.032,0.01-0.049c0.314-2.043,0.664-3.918,1.039-5.663   c1.176-5.486,2.604-9.563,4.027-12.552v30.811l-4.57,3.095c-0.059,1.218-0.105,2.461-0.143,3.722l4.289-2.905l17.945,26.494   l-33.533,22.711L4.168,210.002l9.225-6.249c-0.027-1.208-0.047-2.403-0.059-3.583L0,209.202L21.311,240.663z M65.168,200.899   l-9.5-12l5.471-40.322c1.297,0.486,2.662,0.74,4.027,0.739h0.002c0,0,0.004,0,0.006,0c1.363,0,2.725-0.254,4.02-0.74l5.475,40.323   L65.168,200.899z M61.367,136.398h3.801h3.799l1.9,7.5l-0.289,0.456c-1.566,1.306-3.484,1.96-5.412,1.962   c-1.928-0.002-3.844-0.655-5.408-1.958l-0.291-0.46L61.367,136.398z"/><rect height="19.211" transform="matrix(0.8202 -0.5721 0.5721 0.8202 -110.2643 59.9014)" width="2" x="39.155" y="195.746"/><path d="M39.475,217.404l-5.912-8.463c0.051,1.233,0.109,2.48,0.174,3.739l4.1,5.87L39.475,217.404z"/><path d="M144.268,90.582C153.275,98.316,164.98,103,177.785,103c28.441,0,51.5-23.058,51.5-51.5S206.227,0,177.785,0   c-28.443,0-51.5,23.058-51.5,51.5c0,10.11,2.924,19.532,7.957,27.487l-15.721,23.275L144.268,90.582z M132.285,51.499   c0-25.088,20.41-45.498,45.498-45.498c25.09,0,45.5,20.41,45.5,45.498s-20.41,45.5-45.5,45.5   C152.695,96.999,132.285,76.587,132.285,51.499z"/><circle cx="65.168" cy="100.017" r="22.5"/><path d="M157.35,85.292c0.805-7.19,2.242-11.889,3.666-14.804v16.765c5.092,2.398,10.773,3.746,16.766,3.746   c5.996,0,11.68-1.349,16.775-3.749V70.52c0.367,0.753,0.736,1.617,1.101,2.625c1.035,2.865,1.969,6.828,2.561,12.146   c3.328-2.021,6.334-4.523,8.928-7.405c-1.273-6.683-3.191-11.399-5.445-14.842c-2.037-3.093-4.418-5.075-6.621-6.173   c-2.199-1.109-4.131-1.33-5.23-1.326c-0.395,0-0.692,0.026-0.879,0.051c-0.002,0-0.004,0-0.004,0h-22.363   c-0.004,0-0.006-0.001-0.008-0.001h-0.002c-0.186-0.023-0.482-0.05-0.877-0.05c-1.1-0.003-3.031,0.217-5.23,1.326   c-3.336,1.654-6.932,5.273-9.447,11.683c-1.029,2.6-1.918,5.678-2.615,9.338C151.016,80.771,154.02,83.271,157.35,85.292z"/><circle cx="177.785" cy="38.11" r="13.951"/></g></svg>